<?xml version="1.0" encoding="UTF-8"?>
<svg width="48px" height="48px" viewBox="0 0 48 48" version="1.1" xmlns="http://www.w3.org/2000/svg" xmlns:xlink="http://www.w3.org/1999/xlink">
    <!-- Generator: Sketch 61 (89581) - https://sketch.com -->
    <title>behance-network-logo</title>
    <desc>Created with Sketch.</desc>
    <g id="Page-1" stroke="none" stroke-width="1" fill="none" fill-rule="evenodd">
        <g id="behance-network-logo" transform="translate(11.000000, 15.000000)" fill="#FFFFFF" fill-rule="nonzero">
            <path d="M25.1896013,2.54606431 L17.9239348,2.54606431 L17.9239348,0.744821464 L25.1896013,0.744821464 L25.1896013,2.54606431 L25.1896013,2.54606431 Z M14.0837907,9.92858552 C14.5517972,10.6538765 14.7866901,11.5354113 14.7866901,12.566088 C14.7866901,13.6358256 14.5224356,14.5928191 13.9850289,15.438844 C13.6433664,15.9990136 13.2180678,16.4721839 12.7082433,16.8521405 C12.1334673,17.292464 11.4537013,17.5960742 10.6725043,17.7585323 C9.88774822,17.9209903 9.0398202,18 8.12605097,18 L0,18 L0,0 L8.71239364,0 C10.908287,0.0346222135 12.4653426,0.669362793 13.3844503,1.91753798 C13.9360929,2.68188992 14.2092449,3.5989347 14.2092449,4.66512133 C14.2092449,5.76681791 13.9316442,6.64657723 13.3755529,7.31505228 C13.0659212,7.69057013 12.6085917,8.03235352 12.0017849,8.3395147 C12.9208926,8.67597159 13.6175638,9.20240679 14.0837907,9.92858552 Z M4.16045268,7.09666601 L7.97835312,7.09666601 C8.76310917,7.09666601 9.39749813,6.94663642 9.88507898,6.65012823 C10.3735496,6.35273229 10.61734,5.8245216 10.61734,5.0663839 C10.61734,4.23012428 10.2952519,3.67439337 9.64840652,3.4071809 C9.09231522,3.2207536 8.3814081,3.1248767 7.51924414,3.1248767 L4.16045268,3.1248767 L4.16045268,7.09666601 Z M10.9848051,12.3086408 C10.9848051,11.373841 10.6013246,10.7284474 9.83703269,10.3804498 C9.40995457,10.1842572 8.80670673,10.0821661 8.03351738,10.0750641 L4.16045268,10.0750641 L4.16045268,14.8715723 L7.9721249,14.8715723 C8.7559912,14.8715723 9.36190828,14.7703689 9.79966335,14.5555336 C10.5888681,14.164924 10.9848051,13.4183271 10.9848051,12.3086408 Z M27.8846422,9.38084435 C27.9736168,9.97030973 28.0136554,10.8243243 27.9958605,11.9411126 L18.5876854,11.9411126 C18.6401804,13.2372263 19.0877227,14.1427303 19.9392097,14.6611758 C20.4508137,14.9860919 21.0727462,15.144999 21.8014483,15.144999 C22.5692991,15.144999 23.1947906,14.9514697 23.6761433,14.5537581 C23.9386184,14.3424739 24.1699523,14.0441902 24.3692555,13.6695601 L27.818801,13.6695601 C27.7271572,14.433912 27.3134252,15.2089169 26.5660385,15.9999014 C25.4102584,17.2516275 23.789141,17.8828171 21.7071352,17.8828171 C19.9854765,17.8828171 18.4702389,17.3501677 17.1543045,16.2946341 C15.841929,15.2364372 15.1835169,13.5150917 15.1835169,11.1305978 C15.1835169,8.89435786 15.7760878,7.18100217 16.9630091,5.99053068 C18.1534893,4.79650819 19.6900808,4.20260406 21.58524,4.20260406 C22.7080995,4.20260406 23.7206306,4.4023476 24.6246126,4.80449793 C25.5250356,5.20842375 26.2688633,5.84227658 26.8543163,6.71404616 C27.3837152,7.4819491 27.7253777,8.36969817 27.8846422,9.38084435 Z M24.4884814,9.71730124 C24.427089,8.82156244 24.1263548,8.14332215 23.5853892,7.67991714 C23.0488723,7.21384889 22.380673,6.98125863 21.5834605,6.98125863 C20.7132888,6.98125863 20.0450895,7.22982837 19.5664061,7.71986585 C19.086833,8.21079108 18.788768,8.87482738 18.6659831,9.71730124 L24.4884814,9.71730124 Z" id="Behance"></path>
        </g>
        <path d="M48,0 L48,48 L24,48 L24,48 C37.254834,48 48,37.254834 48,24 C48,10.745166 37.254834,0 24,0 C10.745166,0 0,10.745166 0,24 C0,37.254834 10.745166,48 24,48 L0,48 L0,0 L48,0 Z" id="Combined-Shape" fill="#FFFFFF"></path>
    </g>
</svg>