<?xml version="1.0" encoding="UTF-8"?>
<svg width="48px" height="48px" viewBox="0 0 48 48" version="1.1" xmlns="http://www.w3.org/2000/svg" xmlns:xlink="http://www.w3.org/1999/xlink">
    <!-- Generator: Sketch 61 (89581) - https://sketch.com -->
    <title>behance-network-logo</title>
    <desc>Created with Sketch.</desc>
    <g id="Page-1" stroke="none" stroke-width="1" fill="none" fill-rule="evenodd">
        <g id="dribble" transform="translate(10.000000, 10.000000)" fill="#FFFFFF" fill-rule="nonzero">
            <path d="M14.5,0 C6.5159375,0 0,6.51650391 0,14.5 C0,22.4840625 6.51650391,29 14.5,29 C22.4840625,29 29,22.4834961 29,14.5 C29,6.5159375 22.4834961,0 14.5,0 Z M24.3350781,6.31599609 C26.1453125,8.48759766 27.2503711,11.2658203 27.2979492,14.2960937 C25.0289258,13.7653711 22.5089844,13.7296875 19.9425977,14.1975391 C19.2748047,14.3193164 18.6070117,14.4739453 17.9431836,14.6597266 C17.7222852,14.0587695 17.487793,13.4629102 17.2385742,12.8727148 C16.9842578,12.270625 16.7157812,11.6787305 16.4348437,11.095332 C19.4928711,9.92740234 22.8063477,8.18853516 24.3350781,6.31599609 Z M14.5,1.69921875 C17.8316016,1.69921875 20.8692383,2.97873047 23.1490234,5.07160156 C22.2597656,6.28427734 19.7256641,8.04976562 15.66,9.57226562 C14.2405859,6.92941406 12.5385352,4.50066406 10.5719727,2.31660156 C11.8101367,1.91615234 13.1304297,1.69921875 14.5,1.69921875 Z M8.88974609,2.99628906 C10.8953906,5.14466797 12.6206641,7.54396484 14.0417773,10.1358398 C9.81185547,11.5048437 5.52925781,12.0633203 2.00791016,11.7025195 C2.86544922,7.87078125 5.44542969,4.68248047 8.88974609,2.99628906 Z M1.69921875,14.5 C1.69921875,14.1239062 1.71677734,13.7517773 1.74849609,13.3841797 C2.52560547,13.4663086 3.33613281,13.5076562 4.17384766,13.5076562 C7.47769531,13.5076562 11.1893555,12.8721484 14.8341797,11.6651367 C15.3903906,12.8036133 15.8905273,13.9749414 16.3317578,15.1751562 C14.9106445,15.6860547 13.5274805,16.3357227 12.2287109,17.1088672 C9.044375,19.0046289 6.71474609,21.4435742 5.74845703,23.8326758 C3.25796875,21.4956836 1.69921875,18.176543 1.69921875,14.5 Z M14.5,27.3007812 C11.7648242,27.3007812 9.22732422,26.4381445 7.14464844,24.9705859 C7.79035156,22.7887891 9.97441406,20.4285742 13.0981445,18.5690625 C14.1986719,17.9131641 15.4855469,17.2952148 16.8862695,16.7928125 C17.8791797,19.9137109 18.4875,23.2079297 18.6806445,26.5990039 C17.3699805,27.0532617 15.9635937,27.3007812 14.5,27.3007812 Z M20.3379492,25.8904297 C20.1023242,22.5871484 19.487207,19.3710937 18.4999609,16.2819141 C21.2526953,15.5251953 24.3101562,15.2714453 27.2095898,16.0236328 C26.6964258,20.3288867 24.0388477,23.9856055 20.3379492,25.8904297 Z" id="Shape"></path>
        </g>
        <path d="M48,0 L48,48 L24,48 L24,48 C37.254834,48 48,37.254834 48,24 C48,10.745166 37.254834,0 24,0 C10.745166,0 0,10.745166 0,24 C0,37.254834 10.745166,48 24,48 L0,48 L0,0 L48,0 Z" id="Combined-Shape" fill="#FFFFFF"></path>
    </g>
</svg>