<?xml version="1.0" encoding="UTF-8"?>
<svg width="48px" height="48px" viewBox="0 0 48 48" version="1.1" xmlns="http://www.w3.org/2000/svg" xmlns:xlink="http://www.w3.org/1999/xlink">
    <!-- Generator: Sketch 61 (89581) - https://sketch.com -->
    <title>behance-network-logo</title>
    <desc>Created with Sketch.</desc>
    <g id="Page-1" stroke="none" stroke-width="1" fill="none" fill-rule="evenodd">
        <path d="M48,0 L48,48 L24,48 L24,48 C37.254834,48 48,37.254834 48,24 C48,10.745166 37.254834,0 24,0 C10.745166,0 0,10.745166 0,24 C0,37.254834 10.745166,48 24,48 L0,48 L0,0 L48,0 Z" id="Combined-Shape" fill="#FFFFFF"></path>
        <g id="linkedin-2" transform="translate(13.000000, 12.000000)" fill="#FFFFFF" fill-rule="nonzero">
            <path d="M21.498624,21.504 L21.498624,21.503104 L21.504,21.503104 L21.504,13.616512 C21.504,9.758336 20.673408,6.786304 16.162944,6.786304 C13.994624,6.786304 12.53952,7.976192 11.945472,9.104256 L11.882752,9.104256 L11.882752,7.146496 L7.606144,7.146496 L7.606144,21.503104 L12.059264,21.503104 L12.059264,14.39424 C12.059264,12.522496 12.41408,10.712576 14.732032,10.712576 C17.015936,10.712576 17.049984,12.84864 17.049984,14.514304 L17.049984,21.504 L21.498624,21.504 Z" id="Path"></path>
            <polygon id="Path" points="0.354816 7.147392 4.813312 7.147392 4.813312 21.504 0.354816 21.504"></polygon>
            <path d="M2.582272,0 C1.156736,0 0,1.156736 0,2.582272 C0,4.007808 1.156736,5.188736 2.582272,5.188736 C4.007808,5.188736 5.164544,4.007808 5.164544,2.582272 C5.163648,1.156736 4.006912,0 2.582272,0 Z" id="Path"></path>
        </g>
    </g>
</svg>