<svg xmlns="http://www.w3.org/2000/svg" viewBox="0 0 239.61 240.57"><g id="Layer_2" data-name="Layer 2"><g id="Layer_1-2" data-name="Layer 1"><path d="M228.63,68.92A11.81,11.81,0,0,1,229,78.3a12.16,12.16,0,0,1-6.48,7.07,12,12,0,0,1-9.47.52A12.37,12.37,0,0,1,205.68,70a12.66,12.66,0,0,1,12.77-8.12,12.39,12.39,0,0,1,10.18,7Zm-4,1.85a7.44,7.44,0,0,0-4.44-4,8,8,0,0,0-6.21.46,7.59,7.59,0,0,0-4.42,5.22,7.79,7.79,0,0,0,.53,5.31,7.39,7.39,0,0,0,4.44,4,8.34,8.34,0,0,0,10.34-4.91A7.38,7.38,0,0,0,224.62,70.77Z"/><path d="M236.31,91.89l.87,4.7a15.64,15.64,0,0,1,.32,5.64,5.67,5.67,0,0,1-1.79,3.08,7.1,7.1,0,0,1-3.6,1.68,6.47,6.47,0,0,1-4.29-.52,6.74,6.74,0,0,1-2.89-3,20.31,20.31,0,0,1-1.23-4.6l-9.87,1.83L213,96.21ZM228,98l.27,1.41a7.56,7.56,0,0,0,.66,2.27,2.08,2.08,0,0,0,1,.88,2.33,2.33,0,0,0,1.4.12,2.12,2.12,0,0,0,1.77-1.41,6,6,0,0,0-.06-2.9l-.23-1.25Z"/><path d="M239.61,116.77l-.25,12.94-4.42-.08.17-8.46-4.29-.09-.16,8.46-4.34-.08.17-8.46-6.24-.12-.16,8.46-4.43-.09.25-12.94Z"/><path d="M238.08,141.15,237,145.34l-17.64,5.91,15.1,3.91-1.13,4.36-23-5.93,1.09-4.21,17.59-5.91L214,139.58l1.13-4.37Z"/><path d="M222.85,181.59l-7.32,10.87L211.84,190l2.41-3.58-16-10.75,2.55-3.79,16,10.74,2.35-3.48Z"/><path d="M201.41,208.67a11.8,11.8,0,0,1-8.83,3.2,12.11,12.11,0,0,1-8.68-4.07,12,12,0,0,1-3.34-8.87A12.38,12.38,0,0,1,193.5,187.1a12.45,12.45,0,0,1,7.91,21.57Zm-3-3.27A7.47,7.47,0,0,0,201,200a8,8,0,0,0-2.3-5.79,7.56,7.56,0,0,0-6.3-2.65,7.68,7.68,0,0,0-4.91,2.1A7.35,7.35,0,0,0,185,199a8.35,8.35,0,0,0,7.78,8.4A7.45,7.45,0,0,0,198.45,205.4Z"/><path d="M170,229.86l-4.22,1.37-7.93-13.34.64,15.7L155,234.75l-8.76-13.07,1.44,15.44-4.22,1.37-2.23-24.2L145.3,213l8.88,13.23-.65-15.9,4.08-1.32Z"/><path d="M120.4,240.57a11.79,11.79,0,0,1-8.71-3.5,12.14,12.14,0,0,1-3.76-8.82,12,12,0,0,1,3.43-8.84,12.38,12.38,0,0,1,17.53-.19,12.46,12.46,0,0,1-8.49,21.35Zm0-4.42a7.44,7.44,0,0,0,5.49-2.37,8,8,0,0,0,2.15-5.86,7.58,7.58,0,0,0-2.92-6.17A7.75,7.75,0,0,0,120,220a7.37,7.37,0,0,0-5.43,2.41,7.84,7.84,0,0,0-2.17,5.76,8,8,0,0,0,2.37,5.69A7.39,7.39,0,0,0,120.38,236.15Z"/><path d="M95.63,237.71,91,236.49a15.43,15.43,0,0,1-5.23-2.1,5.64,5.64,0,0,1-2-2.93,7.08,7.08,0,0,1,0-4,6.54,6.54,0,0,1,2.07-3.5,6.85,6.85,0,0,1,3.87-1.44L87,210.92l4.77,1.26,2.6,11.06.4.11,2.56-9.71,4.36,1.15Zm-2-10.11-1.36-.36a5.52,5.52,0,0,0-3-.2,2.13,2.13,0,0,0-1.27,1.6,2.33,2.33,0,0,0,0,1.41,2.24,2.24,0,0,0,.83,1.07,7.88,7.88,0,0,0,2.33.87l1.19.32Z"/><path d="M71,229.83l-4-2.11,3.79-7.24-9.49,4.25-4.8-2.51,12.24-5.53-2-15.84,4.73,2.48L73,216.05l4.89-9.33,4,2.12Z"/><path d="M12.12,173.92a11.79,11.79,0,0,1-.61-9.37,12.09,12.09,0,0,1,6.33-7.2,12,12,0,0,1,9.45-.73A12.38,12.38,0,0,1,35,172.35a12.22,12.22,0,0,1-6.26,7.08,12.35,12.35,0,0,1-6.33,1.32,12.42,12.42,0,0,1-10.32-6.83Zm4-1.93a7.45,7.45,0,0,0,4.52,3.93,8,8,0,0,0,6.2-.59A7.61,7.61,0,0,0,31.12,170a7.79,7.79,0,0,0-.65-5.3A7.39,7.39,0,0,0,26,160.86a7.93,7.93,0,0,0-6.13.54A7.92,7.92,0,0,0,15.71,166,7.43,7.43,0,0,0,16.09,172Z"/><path d="M4,151.15l-1-4.69a15.54,15.54,0,0,1-.44-5.62,5.7,5.7,0,0,1,1.72-3.13A7.25,7.25,0,0,1,7.82,136a6.44,6.44,0,0,1,4.3.43,6.77,6.77,0,0,1,3,3A20.31,20.31,0,0,1,16.41,144l9.83-2,.92,4.42Zm8.15-6.3-.29-1.41a8.1,8.1,0,0,0-.71-2.25,2.14,2.14,0,0,0-1-.86,2.34,2.34,0,0,0-1.4-.09A2.13,2.13,0,0,0,7,141.69a6,6,0,0,0,.12,2.9l.26,1.25Z"/><path d="M.21,126.63,0,113.69l4.41-.07.14,8.46L8.84,122l-.14-8.46,4.33-.07.14,8.46,6.24-.1-.14-8.46,4.43-.07.21,12.94Z"/><path d="M1.13,101.9l1-4.21L19.64,91.4,4.46,87.82l1-4.39,23.07,5.45-1,4.22L10.11,99.38,25.24,103l-1,4.39Z"/><path d="M15.51,61.14l7.08-11,3.74,2.4L24,56.16,40.2,66.57l-2.48,3.85L21.53,60l-2.28,3.53Z"/><path d="M36.39,33.6a11.79,11.79,0,0,1,8.75-3.38,12.13,12.13,0,0,1,8.77,3.89,12,12,0,0,1,3.52,8.8A12.37,12.37,0,0,1,44.74,55a12.45,12.45,0,0,1-8.35-21.4Zm3,3.22A7.43,7.43,0,0,0,37,42.3a8,8,0,0,0,2.42,5.75,7.62,7.62,0,0,0,6.35,2.52,7.71,7.71,0,0,0,4.86-2.21A7.33,7.33,0,0,0,53,42.9,8.34,8.34,0,0,0,45,34.67,7.41,7.41,0,0,0,39.41,36.82Z"/><path d="M67.31,11.77l4.19-1.46,8.2,13.17-1-15.68,3.54-1.23,9,12.87L89.53,4l4.2-1.46,2.74,24.14-4.09,1.42-9.16-13,1,15.88-4,1.41Z"/><path d="M117.1,0a11.81,11.81,0,0,1,8.73,3.45,12.14,12.14,0,0,1,3.82,8.79,12,12,0,0,1-3.38,8.86,12.37,12.37,0,0,1-17.53.3A12.24,12.24,0,0,1,105,12.72a12.33,12.33,0,0,1,5.93-10.91A12.18,12.18,0,0,1,117.1,0Zm.05,4.42a7.44,7.44,0,0,0-5.48,2.41,7.94,7.94,0,0,0-2.11,5.87,7.56,7.56,0,0,0,3,6.15,7.75,7.75,0,0,0,5.07,1.68A7.37,7.37,0,0,0,123,18.08a7.88,7.88,0,0,0,2.13-5.77,8,8,0,0,0-2.41-5.67A7.4,7.4,0,0,0,117.15,4.42Z"/><path d="M141.49,2.35l4.65,1.11a16.08,16.08,0,0,1,5.27,2,5.75,5.75,0,0,1,2.06,2.89,7,7,0,0,1,.09,4,6.57,6.57,0,0,1-2,3.54,6.75,6.75,0,0,1-3.84,1.52l3,11.56-4.8-1.15-2.84-11-.4-.09-2.34,9.76L136,25.39Zm2.22,10.06,1.37.33a5.49,5.49,0,0,0,3,.14,2.14,2.14,0,0,0,1.23-1.63,2.32,2.32,0,0,0-.08-1.41,2.29,2.29,0,0,0-.85-1.05A8.1,8.1,0,0,0,146.05,8l-1.2-.29Z"/><path d="M166.36,9.71l4.08,2-3.64,7.31,9.4-4.45L181.05,17,168.93,22.8l2.29,15.8-4.79-2.39-1.85-12.68L159.89,33l-4.09-2Z"/><circle cx="119.81" cy="120.27" r="72.2"/><circle cx="45.31" cy="197.77" r="6.5"/><circle cx="197.31" cy="42.77" r="6.5"/></g></g></svg>