<?xml version="1.0" encoding="utf-8"?>
<!-- Generator: Adobe Illustrator 25.1.0, SVG Export Plug-In . SVG Version: 6.00 Build 0)  -->
<svg version="1.1" id="Layer_1" xmlns="http://www.w3.org/2000/svg" xmlns:xlink="http://www.w3.org/1999/xlink" x="0px" y="0px"
	 viewBox="0 0 415.1 395.2" style="enable-background:new 0 0 415.1 395.2;" xml:space="preserve">
<g id="Layer_2_1_">
	<g id="Layer_1-2">
		<path d="M374.6,126.4c3.4,1.1,7.2,0.6,10.3-1.2c3.2-1.7,5.6-4.6,6.6-8.1c1.1-3.4,0.7-7.1-1-10.2c-2.3-4.2-6.7-6.9-11.5-7
			c-6.1-0.1-11.6,3.8-13.4,9.6C363.4,116.7,367.4,124.2,374.6,126.4C374.6,126.4,374.6,126.4,374.6,126.4L374.6,126.4z M369.9,111.9
			c0.5-2.6,2.1-4.8,4.5-6c2-1.2,4.5-1.5,6.7-0.9c4.5,1.3,7.1,6,5.8,10.5c0,0.1,0,0.1,0,0.2c-1.5,4.6-6.3,7.2-11,6
			c-2.2-0.6-4-2-5.1-4C369.8,115.9,369.5,113.9,369.9,111.9z"/>
		<path d="M377.7,142.5l10.3-3.7c0.5,1.7,1.2,3.3,2.1,4.8c0.9,1.3,2.2,2.3,3.6,2.8c1.5,0.5,3.2,0.4,4.7-0.2c1.4-0.5,2.6-1.3,3.6-2.4
			c0.8-1,1.3-2.3,1.4-3.6c-0.1-2.1-0.5-4.1-1.3-6l-1.8-4.9l-24.4,8.7L377.7,142.5z M397.5,135.4l0.5,1.3c0.4,1,0.6,2,0.6,3.1
			c-0.2,0.9-0.8,1.6-1.7,1.8c-0.5,0.2-1,0.2-1.5,0.1c-0.5-0.1-0.9-0.4-1.2-0.8c-0.5-0.7-0.9-1.5-1.1-2.3l-0.5-1.5L397.5,135.4z"/>
		<polygon points="386.3,173.2 391,172.1 389,163.1 395.6,161.6 397.6,170.6 402.2,169.6 400.2,160.6 404.8,159.5 406.8,168.5 
			411.5,167.5 408.4,153.7 383.2,159.4 		"/>
		<polygon points="388,185 404.9,183.6 388.9,196 389.3,200.7 415.1,198.5 414.7,193.6 397.7,195.1 413.7,182.6 413.3,177.9 
			387.5,180.1 		"/>
		<polygon points="409.1,226.3 388.2,224 387.7,229 408.6,231.3 408,236 412.9,236.5 414.5,222.3 409.6,221.8 		"/>
		<path d="M405.5,244.8c-4.4-4.2-11.1-5.1-16.4-2.1c-6.4,3.8-8.6,12-4.9,18.4c0,0,0,0,0,0.1c1.8,3.1,4.8,5.3,8.3,6.1
			c3.5,1,7.3,0.5,10.4-1.4c3.1-1.8,5.3-4.7,6.2-8.2C410.4,253.1,409,248.1,405.5,244.8L405.5,244.8z M404.5,256.5
			c-0.5,2.2-2,4.1-4,5.2c-4.2,2.3-9.5,1-12.1-3.1c-1.2-1.9-1.6-4.2-1-6.4c0.5-1.9,1.6-3.7,3.2-4.8c2.1-1.6,4.8-2.1,7.4-1.3
			c2.3,0.5,4.3,1.9,5.5,3.9C404.8,251.9,405.1,254.3,404.5,256.5L404.5,256.5z"/>
		<polygon points="368.7,290 381,302.2 364.1,298.2 361.8,302.3 381.6,320 383.9,315.8 371.3,304.5 388,308.4 390,304.8 
			377.8,292.8 394,297.5 396.4,293.3 370.9,285.9 		"/>
		<path d="M366.1,319.5c-2.7-2.3-6.3-3.4-9.8-3.1c-7.4,0.7-12.9,7.2-12.3,14.6c0,0,0,0,0,0.1c0.3,3.6,2.1,6.9,4.9,9.1
			c2.8,2.4,6.4,3.5,10,3.1c3.6-0.3,6.8-2,9.1-4.7c3.1-3.7,3.9-8.8,2.2-13.3C369.4,323,368,321,366.1,319.5z M364.3,335.4
			c-1.4,1.8-3.5,2.9-5.8,3c-4.8,0.3-9-3.2-9.6-7.9c-0.3-2.2,0.4-4.5,1.8-6.2c1.3-1.6,3-2.6,5-3c2.6-0.5,5.2,0.2,7.2,2
			c1.9,1.4,3.1,3.6,3.3,5.9C366.5,331.4,365.8,333.7,364.3,335.4L364.3,335.4z"/>
		<path d="M330,340.2l7.3,8.2l-0.3,0.3l-11.6-4.3l-4,3.6l12.2,4.5c-0.8,1.3-1.1,2.9-1,4.4c0.2,1.5,0.9,2.9,1.9,4
			c1,1.1,2.2,2,3.6,2.4c1.3,0.4,2.6,0.4,3.9,0c1.9-0.8,3.6-2,5.1-3.5l3.9-3.5l-17.2-19.3L330,340.2z M339.3,353l1.1-1l3.5,4l-1,0.9
			c-0.6,0.6-1.4,1.2-2.2,1.6c-0.5,0.2-1,0.2-1.5,0.1c-0.5-0.1-1-0.4-1.3-0.8c-0.6-0.5-0.8-1.3-0.7-2.1
			C337.7,354.6,338.4,353.6,339.3,353L339.3,353z"/>
		<polygon points="312,354.6 318.5,364.1 305.4,359.1 300.6,362.4 316.8,368.7 315.8,383.3 320.7,380 321.5,368.6 326.5,376 
			330.6,373.2 316.1,351.8 		"/>
		<path d="M38.5,281.3c-3.4-1.1-7.1-0.8-10.3,0.9c-3.3,1.6-5.7,4.4-6.8,7.9c-1.2,3.4-0.9,7.1,0.7,10.2c3.4,6.6,11.5,9.3,18.1,5.9
			c0,0,0.1,0,0.1,0c3.2-1.6,5.6-4.4,6.8-7.8C49.5,291.3,45.6,283.7,38.5,281.3C38.6,281.3,38.5,281.3,38.5,281.3L38.5,281.3z
			 M42.8,295.9c-0.5,2.6-2.3,4.7-4.7,5.8c-2.1,1.1-4.5,1.4-6.8,0.7c-4.5-1.5-6.9-6.2-5.4-10.7c0,0,0-0.1,0-0.1c0.7-2.2,2.3-4,4.4-5
			c2-1.1,4.5-1.3,6.7-0.6c2.2,0.6,4,2.1,5,4.2C43,291.9,43.3,294,42.8,295.9L42.8,295.9z"/>
		<path d="M35.9,265.1l-10.4,3.4c-0.5-1.7-1.1-3.3-2-4.8c-0.9-1.3-2.1-2.3-3.6-2.9c-1.5-0.5-3.2-0.5-4.7,0.1
			c-1.4,0.4-2.7,1.2-3.7,2.3c-0.9,1-1.4,2.3-1.5,3.6c0,2.1,0.4,4.1,1.2,6l1.6,5l24.5-8.1L35.9,265.1z M15.9,271.7l-0.4-1.3
			c-0.4-1-0.6-2.1-0.5-3.1c0.2-0.9,0.8-1.6,1.7-1.8c0.5-0.2,1-0.2,1.5-0.1c0.5,0.1,0.9,0.4,1.2,0.8c0.5,0.7,0.8,1.5,1.1,2.4l0.5,1.5
			L15.9,271.7z"/>
		<polygon points="28.1,234.2 23.4,235.1 25.2,244.2 18.5,245.5 16.7,236.5 12.1,237.4 13.9,246.4 9.3,247.4 7.5,238.3 2.7,239.3 
			5.5,253.1 30.9,248 		"/>
		<polygon points="26.7,222.3 9.8,223.3 26.1,211.3 25.8,206.6 0,208.1 0.3,213 17.3,212 0.9,224.1 1.2,228.8 27,227.3 		"/>
		<polygon points="6.7,180.5 27.5,183.4 28.2,178.4 7.4,175.5 8,170.9 3.2,170.2 1.2,184.3 6.1,185 		"/>
		<path d="M10.8,162.1c1.7,1.7,3.8,3,6.1,3.6c3.4,1,7.1,0.6,10.2-1.1c6.5-3.6,8.9-11.8,5.4-18.3c0,0,0,0,0,0
			c-1.7-3.2-4.7-5.5-8.1-6.4c-3.5-1-7.3-0.6-10.4,1.2c-3.2,1.7-5.5,4.6-6.4,8c-0.7,2.3-0.7,4.7-0.1,7C8,158.3,9.2,160.4,10.8,162.1z
			 M12.1,150.3c0.6-2.2,2.1-4.1,4.1-5.1c2-1.1,4.5-1.4,6.7-0.7c2.3,0.6,4.2,2.1,5.3,4.1c1.2,1.9,1.5,4.3,0.8,6.4
			c-0.5,1.9-1.7,3.6-3.4,4.8c-2.1,1.5-4.9,1.9-7.4,1.1c-2.3-0.6-4.3-2-5.4-4.1C11.8,154.9,11.5,152.5,12.1,150.3L12.1,150.3z"/>
		<polygon points="34.3,91.8 46.6,103.3 30,99 27.9,102.5 39.8,114.9 23.7,109.7 21.2,113.9 46.5,122 48.8,117.9 36.8,105.4 
			53.6,109.8 56,105.8 36.7,87.6 		"/>
		<path d="M69.9,68.3c-2.7-2.5-6.3-3.7-9.9-3.4c-3.6,0.2-6.9,1.8-9.2,4.5c-3.2,3.6-4.2,8.7-2.6,13.2c2,5.8,7.6,9.5,13.7,9.2
			C69.3,91.4,75,85,74.6,77.6c0,0,0,0,0-0.1C74.3,73.9,72.7,70.6,69.9,68.3z M67.7,84.1c-1.3,1.5-3.1,2.5-5.1,2.8
			c-2.6,0.5-5.2-0.3-7.1-2.1c-1.8-1.5-3-3.7-3.2-6c-0.3-4.7,3.2-8.7,7.8-9.1c0.1,0,0.1,0,0.2,0c4.8-0.2,8.9,3.4,9.4,8.2
			C70,80.2,69.2,82.4,67.7,84.1z"/>
		<path d="M86.8,52.1c-0.2-1.5-0.8-2.9-1.8-4c-0.9-1.2-2.2-2-3.6-2.5c-1.3-0.4-2.6-0.4-3.9,0c-1.9,0.8-3.7,1.9-5.2,3.3l-4,3.4
			L85.1,72l3.8-3.2l-7.1-8.4l0.3-0.3l11.5,4.6l4.1-3.5l-12.1-4.8C86.5,55.1,86.9,53.6,86.8,52.1z M82,53.2c-0.4,1-1.2,1.9-2.1,2.6
			l-1.2,1l-3.4-4l1-0.9c0.7-0.6,1.4-1.1,2.2-1.5c0.5-0.2,1-0.2,1.4-0.1c0.5,0.1,1,0.4,1.3,0.9C81.9,51.6,82.1,52.4,82,53.2z"/>
		<polygon points="104.2,26.1 99.2,29.3 98.1,40.6 93.3,33 89.1,35.7 103,57.5 107.2,54.8 101,45.1 113.9,50.5 118.9,47.4 
			102.8,40.7 		"/>
		<circle cx="207.6" cy="206.1" r="76.5"/>
	</g>
</g>
</svg>
