<svg xmlns="http://www.w3.org/2000/svg" viewBox="0 0 239.67 240.35"><g id="Layer_2" data-name="Layer 2"><g id="Layer_1-2" data-name="Layer 1"><path d="M228.8,69.21a12.29,12.29,0,0,1,.55,9.69,12.45,12.45,0,0,1-23,1,12.1,12.1,0,0,1-.49-9.59,11.81,11.81,0,0,1,6.38-7,12.48,12.48,0,0,1,6.43-1.18,12,12,0,0,1,6.05,2.15A12.14,12.14,0,0,1,228.8,69.21Zm-2.05,1.07a9.78,9.78,0,0,0-3.35-3.94,10,10,0,0,0-4.9-1.77,10.35,10.35,0,0,0-5.25,1,10,10,0,0,0-4.88,13.31,10.13,10.13,0,0,0,3.38,4.06,9.58,9.58,0,0,0,4.86,1.77,10.26,10.26,0,0,0,5.23-1,10.05,10.05,0,0,0,4.07-3.35,9.9,9.9,0,0,0,1.75-4.91A10,10,0,0,0,226.75,70.28Z"/><path d="M236.66,93.18l.79,4.65a27.88,27.88,0,0,1,.57,5.46,6.06,6.06,0,0,1-1.47,3.62,6.61,6.61,0,0,1-7.7,1.34,6.18,6.18,0,0,1-2.62-3.06,30.9,30.9,0,0,1-1.39-5.88l-.29-1.67L213.69,99.5l-.4-2.34Zm-1.89,2.72-7.93,1.35.63,4a10.31,10.31,0,0,0,1,3.43,3.68,3.68,0,0,0,1.71,1.51,4,4,0,0,0,2.29.26,3.86,3.86,0,0,0,2-1,3.54,3.54,0,0,0,1.1-1.91,10.14,10.14,0,0,0-.17-3.48Z"/><path d="M239.67,119.36l-.57,13.57-2.32-.09.47-11.21-7.42-.31-.47,11.11-2.32-.1.47-11.11-9.31-.39-.46,11.11-2.32-.1.56-13.47Z"/><path d="M214.69,137.69l22.79,6.51-.14.5-21.8,10.17,17.47,5-.64,2.24-22.79-6.51.14-.51L231.28,145,214,140Z"/><path d="M219.34,182.81l1.89,1.35-7.51,10.59-1.9-1.35,3.06-4.31-17.43-12.38,1.4-2,17.43,12.38Z"/><path d="M198.82,210.94a12.29,12.29,0,0,1-9.16,3.2,12.46,12.46,0,0,1-7.32-21.86,12.14,12.14,0,0,1,9.09-3.12,11.88,11.88,0,0,1,8.47,4.22,12.61,12.61,0,0,1,2.9,5.86,12,12,0,0,1-.4,6.4A12.18,12.18,0,0,1,198.82,210.94Zm-1.59-1.67a10.14,10.14,0,0,0,3.22-9.51,10.3,10.3,0,0,0-2.4-4.77,10,10,0,0,0-14.13-1,10.12,10.12,0,0,0-3,4.36,9.66,9.66,0,0,0-.36,5.16,10.24,10.24,0,0,0,2.39,4.76,10,10,0,0,0,4.34,3,9.9,9.9,0,0,0,5.19.33A10.12,10.12,0,0,0,197.23,209.27Z"/><path d="M165.46,231.82l-2.34.65-9.21-15.18-2,18.27-.47.13-11-14.68-.21,17.78-2.32.64.26-24.66.43-.12,11.54,15.42,2.15-19.19.43-.12Z"/><path d="M113.17,240.33a12.29,12.29,0,0,1-8.8-4.09,12.52,12.52,0,0,1,18.68-16.67,11.86,11.86,0,0,1,3.14,8.92,12.66,12.66,0,0,1-2,6.23,11.94,11.94,0,0,1-4.75,4.31A12.09,12.09,0,0,1,113.17,240.33Zm0-2.3a10.1,10.1,0,0,0,8.93-4.58,10.14,10.14,0,0,0,1.61-5.09,10,10,0,0,0-9.41-10.59,10.17,10.17,0,0,0-5.17,1,9.5,9.5,0,0,0-3.87,3.45,10.36,10.36,0,0,0-1.6,5.08,10,10,0,0,0,1,5.17,9.77,9.77,0,0,0,3.49,3.85A10.06,10.06,0,0,0,113.2,238Z"/><path d="M88.15,235.89l-4.47-1.51a27.8,27.8,0,0,1-5-2,6.08,6.08,0,0,1-2.59-3.06,6,6,0,0,1,0-4.13,6.43,6.43,0,0,1,1.95-2.93A5.63,5.63,0,0,1,81.25,221a11.72,11.72,0,0,1,4.67.77l-4.55-13.16,2.77.94,4.56,13.15,1.27.43,3.52-10.43,2.24.76Zm-1.5-3,2.58-7.63L85.37,224a10.35,10.35,0,0,0-3.47-.69,3.66,3.66,0,0,0-2.15.8A4,4,0,0,0,78.44,226a3.88,3.88,0,0,0-.08,2.26,3.62,3.62,0,0,0,1.16,1.87,10.47,10.47,0,0,0,3.17,1.51Z"/><path d="M63.14,225.89l-2.06-1.26,4.65-7.58L53,219.67,50.29,218l15.27-3.11-3.63-17.56L64.62,199l3.08,14.84,5.78-9.41,2.06,1.27Z"/><path d="M11.63,172.86a12.31,12.31,0,0,1-.71-9.67,12,12,0,0,1,6.38-7.13,12,12,0,0,1,9.52-.6,12,12,0,0,1,7.12,6.35,12.17,12.17,0,0,1,.64,9.59,11.88,11.88,0,0,1-6.27,7.07,12.5,12.5,0,0,1-6.42,1.28,12,12,0,0,1-6.08-2.05A12.17,12.17,0,0,1,11.63,172.86Zm2-1.1a9.67,9.67,0,0,0,3.41,3.89,9.93,9.93,0,0,0,4.93,1.7,10.35,10.35,0,0,0,5.23-1.07A10,10,0,0,0,31.9,162.9a10.11,10.11,0,0,0-3.43-4,9.66,9.66,0,0,0-4.89-1.7,10.38,10.38,0,0,0-5.22,1.07,10.12,10.12,0,0,0-4,3.42,9.88,9.88,0,0,0-1.67,4.92A10.08,10.08,0,0,0,13.66,171.76Z"/><path d="M3.4,149l-.86-4.64a26.76,26.76,0,0,1-.65-5.46,6,6,0,0,1,1.41-3.63,5.9,5.9,0,0,1,3.6-2,6,6,0,0,1,4.07.52,6.14,6.14,0,0,1,2.67,3,30.62,30.62,0,0,1,1.49,5.85l.31,1.67,10.83-2,.44,2.33Zm1.85-2.76,7.91-1.47-.69-3.95a10.41,10.41,0,0,0-1.09-3.42,3.56,3.56,0,0,0-1.73-1.48,4.07,4.07,0,0,0-4.32.8,3.69,3.69,0,0,0-1.07,1.93,10.48,10.48,0,0,0,.22,3.48Z"/><path d="M0,122.89l.37-13.58,2.32.06-.31,11.21,7.43.2.3-11.11,2.32.06-.3,11.11,9.31.25.3-11.11,2.32.06-.37,13.48Z"/><path d="M24.7,104.17,1.81,98l.13-.5L23.59,87,6.05,82.27,6.65,80l22.89,6.16-.14.51L8,97.13l17.33,4.67Z"/><path d="M19.34,59.16l-1.91-1.32,7.35-10.7,1.92,1.31-3,4.36L41.33,64.92l-1.37,2L22.33,54.8Z"/><path d="M39.47,30.68a12.28,12.28,0,0,1,9.11-3.33,12.58,12.58,0,0,1,11.8,13.16,12,12,0,0,1-4.16,8.59,12.15,12.15,0,0,1-9,3.25,11.83,11.83,0,0,1-8.52-4.09,12.7,12.7,0,0,1-3-5.82,12.21,12.21,0,0,1,3.81-11.76Zm1.62,1.65A10.13,10.13,0,0,0,38,41.88a10.31,10.31,0,0,0,2.46,4.74,10,10,0,0,0,14.15.82A10.13,10.13,0,0,0,57.53,43a9.59,9.59,0,0,0,.29-5.17,10.33,10.33,0,0,0-2.46-4.73A10.08,10.08,0,0,0,51,30.22,9.8,9.8,0,0,0,45.78,30,10,10,0,0,0,41.09,32.33Z"/><path d="M72.5,9.3l2.34-.68,9.43,15L86,5.36l.47-.14L97.71,19.73,97.65,2,100,1.28l.11,24.66-.43.13L87.88,10.82,86,30.05l-.43.12Z"/><path d="M124.67,0a12.34,12.34,0,0,1,8.86,4,12,12,0,0,1,3.26,9,12,12,0,0,1-4,8.67,12,12,0,0,1-9,3.26,12.15,12.15,0,0,1-8.75-4,11.88,11.88,0,0,1-3.26-8.87,12.56,12.56,0,0,1,1.91-6.26,12,12,0,0,1,4.69-4.38A12.17,12.17,0,0,1,124.67,0Zm0,2.31A10.1,10.1,0,0,0,115.81,7a10.35,10.35,0,0,0-1.54,5.12,9.71,9.71,0,0,0,2.64,7.25,9.67,9.67,0,0,0,6.93,3.2A10.17,10.17,0,0,0,129,21.46,9.62,9.62,0,0,0,132.81,18a10.3,10.3,0,0,0,1.53-5.1,10,10,0,0,0-1.1-5.15,9.76,9.76,0,0,0-3.56-3.8A10,10,0,0,0,124.68,2.32Z"/><path d="M149.75,4.08l4.49,1.44a28.16,28.16,0,0,1,5,1.94,6.07,6.07,0,0,1,2.63,3,5.91,5.91,0,0,1,.07,4.13,6.38,6.38,0,0,1-1.91,3,5.72,5.72,0,0,1-3.15,1.31,12,12,0,0,1-4.69-.7L157,31.28l-2.79-.9L149.4,17.3l-1.28-.41-3.36,10.48-2.25-.72ZM151.29,7l-2.46,7.67L152.71,16a10.11,10.11,0,0,0,3.48.64,3.58,3.58,0,0,0,2.13-.83,4,4,0,0,0,1.29-1.91,3.79,3.79,0,0,0,0-2.26,3.56,3.56,0,0,0-1.18-1.85,10.22,10.22,0,0,0-3.19-1.46Z"/><path d="M174.88,13.68,177,14.91l-4.54,7.66,12.69-2.82,2.74,1.62-15.22,3.34,3.89,17.5-2.71-1.61L170.5,25.81l-5.63,9.49-2.08-1.23Z"/><circle cx="119.82" cy="120.21" r="72.2"/><circle cx="199.32" cy="45.71" r="6.5"/><circle cx="41.32" cy="193.71" r="6.5"/></g></g></svg>